<?xml version="1.0" encoding="UTF-8"?>
<svg version="1.1" xmlns="http://www.w3.org/2000/svg" width="445" height="358">
<path d="M0 0 C146.85 0 293.7 0 445 0 C445 118.14 445 236.28 445 358 C298.15 358 151.3 358 0 358 C0 239.86 0 121.72 0 0 Z " fill="#E2F3FB" transform="translate(0,0)"/>
<path d="M0 0 C7.26 0 14.52 0 22 0 C21.01 1.98 20.02 3.96 19 6 C19.08571661 8.09291157 19.08571661 8.09291157 20 10 C20.99 12.475 20.99 12.475 22 15 C17.38 15 12.76 15 8 15 C8 17.64 8 20.28 8 23 C9.31194336 22.97905273 10.62388672 22.95810547 11.97558594 22.93652344 C16.84331344 22.8641203 21.71099335 22.81819887 26.57910156 22.78027344 C28.68595382 22.76015874 30.79275025 22.73286333 32.89941406 22.69824219 C35.92787447 22.64971832 38.95559678 22.62702984 41.984375 22.609375 C43.39707672 22.57840729 43.39707672 22.57840729 44.83831787 22.54681396 C45.71892883 22.54651184 46.59953979 22.54620972 47.50683594 22.54589844 C48.27960876 22.53701599 49.05238159 22.52813354 49.84857178 22.51898193 C52.95194535 23.21283671 54.10849169 24.47746132 56 27 C56.50120544 29.69396973 56.50120544 29.69396973 56.50170898 32.80664062 C56.51108994 33.9746521 56.52047089 35.14266357 56.53013611 36.34606934 C56.51890213 37.60342896 56.50766815 38.86078857 56.49609375 40.15625 C56.49754898 41.45067017 56.49900421 42.74509033 56.50050354 44.07873535 C56.5018865 46.8158811 56.48934815 49.55250219 56.46655273 52.28955078 C56.43816737 55.79356579 56.44090629 59.29670938 56.45364285 62.80078888 C56.46228026 66.14853353 56.44715063 69.49602005 56.43359375 72.84375 C56.43652939 74.10110962 56.43946503 75.35846924 56.44248962 76.65393066 C56.42980545 77.82194214 56.41712128 78.98995361 56.40405273 80.19335938 C56.39864975 81.22054077 56.39324677 82.24772217 56.38768005 83.30603027 C55.93656196 86.44082782 55.29300906 87.8229937 53 90 C50.93086243 90.48101807 50.93086243 90.48101807 48.52856445 90.45410156 C47.62785721 90.45379944 46.72714996 90.45349731 45.79914856 90.45318604 C44.83031235 90.43254089 43.86147614 90.41189575 42.86328125 90.390625 C41.37141548 90.38213531 41.37141548 90.38213531 39.84941101 90.37347412 C36.66995289 90.3510672 33.491618 90.30086205 30.3125 90.25 C28.15821939 90.22994062 26.00392113 90.21168887 23.84960938 90.1953125 C18.56597286 90.15118811 13.28317692 90.0821301 8 90 C8 96.27 8 102.54 8 109 C8.99 109 9.98 109 11 109 C11.0825 108.2575 11.165 107.515 11.25 106.75 C12.20394632 103.25219683 12.98065756 102.03805615 16 100 C19.15022124 99.31107311 21.85833927 99.24533061 25 100 C27.44794793 101.79929813 28.37356534 103.32425265 30 106 C30 106.99 30 107.98 30 109 C30.66 109 31.32 109 32 109 C32.0825 108.071875 32.165 107.14375 32.25 106.1875 C33 103 33 103 34.734375 101.3359375 C38.62535224 99.04160265 42.63876301 99.06544922 47 100 C49.625 103 49.625 103 51 106 C55.76507328 103.74982651 57.84718656 100.65803872 60 96 C60.91036898 93.24300423 61.56879439 90.46008139 62.1875 87.625 C63.89705882 80.10294118 63.89705882 80.10294118 65 79 C67.18639453 78.92741054 69.37500389 78.91626217 71.5625 78.9375 C73.35880859 78.95103516 73.35880859 78.95103516 75.19140625 78.96484375 C76.58166016 78.98224609 76.58166016 78.98224609 78 79 C78 81.31 78 83.62 78 86 C76.865625 86.474375 75.73125 86.94875 74.5625 87.4375 C71.24259834 88.63622083 71.24259834 88.63622083 70 90 C69.94934508 91.42227771 69.96444916 92.84701256 70.0078125 94.26953125 C70.22191564 104.34983774 70.33044778 113.371037 67 123 C66.67 123.99 66.34 124.98 66 126 C65.34 126 64.68 126 64 126 C63.76023437 126.74894531 63.52046875 127.49789062 63.2734375 128.26953125 C61.81112432 131.40498189 60.38668438 132.64605557 57.625 134.6875 C56.85414063 135.26886719 56.08328125 135.85023438 55.2890625 136.44921875 C50.35775084 139.79005617 46.59729978 140.30545 40.65820312 140.32226562 C39.39876892 140.33716034 39.39876892 140.33716034 38.1138916 140.35235596 C35.33631087 140.38155831 32.55895905 140.3952004 29.78125 140.40625 C27.84273273 140.41776188 25.90421547 140.42927724 23.96569824 140.4407959 C19.89704328 140.4618081 15.8284672 140.47349662 11.75976562 140.48046875 C6.57259772 140.49139848 1.38649042 140.5393682 -3.80034637 140.59641266 C-7.80866416 140.63387133 -11.81673262 140.64408768 -15.82521057 140.6471405 C-17.73561867 140.65315489 -19.64602443 140.66908012 -21.55625916 140.69551086 C-33.64201806 140.85071001 -43.71426291 140.4703615 -53.24694824 132.0045166 C-61.59560642 123.64912247 -61.494127 113.14760934 -61.6875 101.9375 C-61.72074298 100.58134868 -61.75523885 99.22522747 -61.79101562 97.86914062 C-61.8729637 94.57951063 -61.94228962 91.29012945 -62 88 C-63.134375 87.855625 -64.26875 87.71125 -65.4375 87.5625 C-69 87 -69 87 -70 86 C-70.29386153 82.27775401 -70.14809171 81.22213757 -68 78 C-65.72265625 77.56640625 -65.72265625 77.56640625 -63.0625 77.5625 C-62.18722656 77.54316406 -61.31195313 77.52382812 -60.41015625 77.50390625 C-58 78 -58 78 -56.3046875 79.5703125 C-54.60600409 82.73372891 -53.88072475 85.81836427 -53.0625 89.3125 C-51.04882154 98.47257882 -51.04882154 98.47257882 -45.0625 105.25 C-42.68240353 105.18381948 -42.68240353 105.18381948 -40.6875 102.5625 C-38 100 -38 100 -34.5625 99.4375 C-30.35722953 100.10149007 -28.18861578 101.19098133 -25 104 C-24.125 106.75 -24.125 106.75 -24 109 C-23.34 109 -22.68 109 -22 109 C-21.9175 108.2575 -21.835 107.515 -21.75 106.75 C-20.81588125 103.3248979 -19.8942612 102.05644875 -17 100 C-12.7069654 99.36399487 -10.51673636 99.74163182 -6.625 101.6875 C-4 104 -4 104 -3.125 106.75 C-3.08375 107.4925 -3.0425 108.235 -3 109 C-2.01 109 -1.02 109 0 109 C0 102.73 0 96.46 0 90 C-1.34747314 90.02094727 -2.69494629 90.04189453 -4.08325195 90.06347656 C-9.07581991 90.13579951 -14.06834145 90.18177188 -19.0612793 90.21972656 C-21.22346784 90.23985958 -23.38560183 90.26716833 -25.54760742 90.30175781 C-28.65296884 90.35020117 -31.75761136 90.37295172 -34.86328125 90.390625 C-35.83211746 90.41127014 -36.80095367 90.43191528 -37.79914856 90.45318604 C-39.15020943 90.45363922 -39.15020943 90.45363922 -40.52856445 90.45410156 C-41.32132278 90.46298401 -42.11408112 90.47186646 -42.93086243 90.48101807 C-45 90 -45 90 -46.75619507 88.33552551 C-48.30448167 85.4282667 -48.37432405 83.46665468 -48.37231445 80.17749023 C-48.38165764 78.42063148 -48.38165764 78.42063148 -48.39118958 76.62828064 C-48.38197983 75.36778397 -48.37277008 74.10728729 -48.36328125 72.80859375 C-48.36377975 71.51180191 -48.36427826 70.21501007 -48.36479187 68.87892151 C-48.36470228 66.13766815 -48.35429974 63.39670973 -48.33618164 60.65551758 C-48.31347219 57.14257943 -48.31295575 53.63007113 -48.31969929 50.11707973 C-48.32384396 46.764202 -48.31186865 43.41145667 -48.30078125 40.05859375 C-48.30214836 38.16481239 -48.30214836 38.16481239 -48.30354309 36.23277283 C-48.29401108 35.06468582 -48.28447906 33.89659882 -48.2746582 32.69311523 C-48.27005081 31.66371323 -48.26544342 30.63431122 -48.26069641 29.57371521 C-48 27 -48 27 -46 24 C-43.21938025 23.07312675 -41.57948141 22.87806604 -38.7121582 22.88647461 C-37.85149246 22.88655014 -36.99082672 22.88662567 -36.1040802 22.88670349 C-35.17899155 22.89186478 -34.25390289 22.89702606 -33.30078125 22.90234375 C-32.35059616 22.9037587 -31.40041107 22.90517365 -30.4214325 22.90663147 C-27.38508971 22.91223125 -24.34882052 22.92478368 -21.3125 22.9375 C-19.25455836 22.94251503 -17.19661556 22.94707793 -15.13867188 22.95117188 C-10.09239671 22.96134992 -5.0462808 22.98092544 0 23 C0 15.41 0 7.82 0 0 Z " fill="#384A66" transform="translate(220,69)"/>
<path d="M0 0 C-0.24361357 6.82118001 -2.11896372 11.1311056 -7 16 C-8.485 16.495 -8.485 16.495 -10 17 C-10.495 18.485 -10.495 18.485 -11 20 C-14.74322782 21.24774261 -18.23973732 21.16362467 -22.13989258 21.17700195 C-23.38430367 21.18685875 -23.38430367 21.18685875 -24.65385437 21.19691467 C-27.40074759 21.21663384 -30.14758618 21.22830679 -32.89453125 21.23828125 C-33.83309149 21.24235678 -34.77165173 21.2464323 -35.73865318 21.25063133 C-40.70573074 21.27148552 -45.67278072 21.28579044 -50.63989258 21.29516602 C-55.76799915 21.30623307 -60.89567212 21.34063826 -66.02362537 21.38033772 C-69.96905826 21.40649048 -73.91438758 21.41485663 -77.85989952 21.41844749 C-79.75011819 21.4233164 -81.64033213 21.43493903 -83.53046608 21.45348549 C-86.17796784 21.47785004 -88.82434413 21.47691705 -91.47192383 21.4699707 C-92.24980255 21.48278076 -93.02768127 21.49559082 -93.82913208 21.50878906 C-99.84304212 21.45139005 -103.31522595 19.54792877 -107.609375 15.47265625 C-111.44865253 10.72615218 -113.35112884 7.14475477 -113 1 C-112.38125 1.433125 -111.7625 1.86625 -111.125 2.3125 C-104.15494036 6.07633221 -96.82385072 7.3690443 -89 8 C-89 7.34 -89 6.68 -89 6 C-87.37509046 5.97301811 -85.75005367 5.95361243 -84.125 5.9375 C-82.76761719 5.92009766 -82.76761719 5.92009766 -81.3828125 5.90234375 C-79 6 -79 6 -77 7 C-72.34724024 7.3052622 -72.34724024 7.3052622 -68 6 C-66.35637388 5.90397687 -64.70892734 5.86925439 -63.0625 5.8671875 C-62.08539063 5.86589844 -61.10828125 5.86460937 -60.1015625 5.86328125 C-59.07804687 5.86714844 -58.05453125 5.87101563 -57 5.875 C-55.46472656 5.86919922 -55.46472656 5.86919922 -53.8984375 5.86328125 C-52.92132813 5.86457031 -51.94421875 5.86585938 -50.9375 5.8671875 C-50.03902344 5.86831543 -49.14054687 5.86944336 -48.21484375 5.87060547 C-46 6 -46 6 -44 7 C-39.34724024 7.3052622 -39.34724024 7.3052622 -35 6 C-33.33555539 5.9044069 -31.66718037 5.87015355 -30 5.875 C-29.113125 5.87242187 -28.22625 5.86984375 -27.3125 5.8671875 C-25 6 -25 6 -23 7 C-17.73830271 7.42952631 -13.77694825 6.46268644 -8.91796875 4.65625 C-7 4 -7 4 -5 4 C-5 3.34 -5 2.68 -5 2 C-2 0 -2 0 0 0 Z " fill="#F1F3F5" transform="translate(281,180)"/>
<path d="M0 0 C0.8971875 0.9590625 0.8971875 0.9590625 1.8125 1.9375 C4.63026443 4.59424932 6.13241502 5.0773517 10 5 C11.66095504 3.92100736 11.66095504 3.92100736 13.1875 2.5 C14.5796875 1.2625 14.5796875 1.2625 16 0 C19.76183735 1.25394578 21.21757603 3.17805296 24 6 C26.28047903 7.94359008 28.63508637 9.78562273 31 11.625 C31.60328125 12.10195312 32.2065625 12.57890625 32.828125 13.0703125 C35.47502601 15.14180024 38.02602213 17.01515651 40.9375 18.7109375 C41.618125 19.13632813 42.29875 19.56171875 43 20 C43 20.66 43 21.32 43 22 C19.57 22 -3.86 22 -28 22 C-26.1629597 18.32591939 -25.62973726 17.41512811 -22.55078125 15.1953125 C-21.86693359 14.69386719 -21.18308594 14.19242188 -20.47851562 13.67578125 C-19.76373047 13.16402344 -19.04894531 12.65226563 -18.3125 12.125 C-16.91096463 11.10924406 -15.51121189 10.09102376 -14.11328125 9.0703125 C-13.4270166 8.57047852 -12.74075195 8.07064453 -12.03369141 7.55566406 C-9.4018749 5.54246661 -6.95850981 3.3516911 -4.53198242 1.09716797 C-3 0 -3 0 0 0 Z " fill="#FAFAFB" transform="translate(216,129)"/>
<path d="M0 0 C22.44 0 44.88 0 68 0 C68 0.66 68 1.32 68 2 C67.030625 2.51691406 66.06125 3.03382812 65.0625 3.56640625 C60.36536248 6.25166621 56.22472224 9.57402567 52 12.9375 C49.71557511 14.74472539 47.42884415 16.54799748 45.12890625 18.33544922 C43.76674499 19.40049686 42.4186813 20.48398645 41.08984375 21.59033203 C38.43159616 23.70451521 36.56123917 24.95635657 33.13671875 25.22265625 C28.4445023 23.39368521 24.77768829 20.50199205 20.8125 17.4375 C19.1253208 16.15973256 17.43782211 14.88238684 15.75 13.60546875 C14.93789062 12.98591309 14.12578125 12.36635742 13.2890625 11.72802734 C9.50697483 8.87290613 5.62382434 6.16534021 1.73828125 3.453125 C1.16464844 2.97359375 0.59101563 2.4940625 0 2 C0 1.34 0 0.68 0 0 Z " fill="#F4F6F7" transform="translate(190,100)"/>
<path d="M0 0 C3.63 0 7.26 0 11 0 C11.99 3.96 12.98 7.92 14 12 C15.90318884 9.14521674 16.4619099 7.58058692 17.125 4.3125 C17.41375 2.889375 17.7025 1.46625 18 0 C21.63 0 25.26 0 29 0 C29 9.57 29 19.14 29 29 C26.69 29 24.38 29 22 29 C21.67 25.37 21.34 21.74 21 18 C20.34 21.3 19.68 24.6 19 28 C16.36 28 13.72 28 11 28 C9.94503714 24.34279543 8.92328593 20.69314372 8 17 C7.67 20.96 7.34 24.92 7 29 C4.69 29 2.38 29 0 29 C0 19.43 0 9.86 0 0 Z " fill="#3D506B" transform="translate(239,230)"/>
<path d="M0 0 C0 14.19 0 28.38 0 43 C-6.74087471 38.50608353 -6.74087471 38.50608353 -9.62109375 36.16015625 C-10.24693359 35.65419922 -10.87277344 35.14824219 -11.51757812 34.62695312 C-12.15115234 34.11068359 -12.78472656 33.59441406 -13.4375 33.0625 C-14.70552022 32.03069235 -15.97504439 31.00073009 -17.24609375 29.97265625 C-17.86210449 29.4739502 -18.47811523 28.97524414 -19.11279297 28.46142578 C-21.01529252 26.9881577 -22.97593452 25.65029029 -24.97265625 24.30859375 C-25.97167969 23.54675781 -26.97070312 22.78492187 -28 22 C-28 21.01 -28 20.02 -28 19 C-25.95071905 17.3205597 -23.94225091 15.84580106 -21.75 14.375 C-20.46771392 13.49108448 -19.18648366 12.60563557 -17.90625 11.71875 C-17.25527344 11.27015625 -16.60429687 10.8215625 -15.93359375 10.359375 C-11.97028691 7.57305019 -8.16096263 4.57892567 -4.328125 1.6171875 C-2 0 -2 0 0 0 Z " fill="#F1F2F4" transform="translate(268,104)"/>
<path d="M0 0 C0.66 0 1.32 0 2 0 C3.13036456 1.15409359 4.25851516 2.31041879 5.37695312 3.47607422 C9.39283029 7.24669775 14.21551699 10.17607272 18.7578125 13.27148438 C19.54414063 13.82255859 20.33046875 14.37363281 21.140625 14.94140625 C22.21618652 15.67919312 22.21618652 15.67919312 23.31347656 16.43188477 C25.25962545 18.24139755 25.62900229 19.406866 26 22 C23.8342384 23.7094916 21.66757246 25.41780664 19.5 27.125 C18.86231689 27.62765381 18.22463379 28.13030762 17.56762695 28.64819336 C13.55273631 31.80475268 9.50358184 34.89827915 5.35546875 37.87890625 C3.84393043 38.97530374 3.84393043 38.97530374 3 41 C2.01 41 1.02 41 0 41 C0 27.47 0 13.94 0 0 Z " fill="#F3F4F6" transform="translate(180,104)"/>
<path d="M0 0 C14 0 14 0 19 3 C21.5018939 6.75284085 21.29930669 8.89806957 21.3125 13.375 C21.32925781 14.68210938 21.34601563 15.98921875 21.36328125 17.3359375 C20.98578721 21.14335053 20.37166005 23.03403638 18 26 C17.01 26.33 16.02 26.66 15 27 C15 27.66 15 28.32 15 29 C10.05 29 5.1 29 0 29 C0 19.43 0 9.86 0 0 Z " fill="#3D506B" transform="translate(209,230)"/>
<path d="M0 0 C2.64 0 5.28 0 8 0 C9.98 3.96 11.96 7.92 14 12 C14.33 8.04 14.66 4.08 15 0 C17.31 0 19.62 0 22 0 C22 9.57 22 19.14 22 29 C19.36 29 16.72 29 14 29 C12.02 24.71 10.04 20.42 8 16 C7.67 20.29 7.34 24.58 7 29 C4.69 29 2.38 29 0 29 C0 19.43 0 9.86 0 0 Z " fill="#40536E" transform="translate(178,230)"/>
<path d="M0 0 C1.04285156 0.00128906 2.08570313 0.00257813 3.16015625 0.00390625 C5.9375 0.4375 5.9375 0.4375 7.765625 1.734375 C9.61400911 4.42069324 9.63701856 7.25239675 9.9375 10.4375 C7.6275 10.4375 5.3175 10.4375 2.9375 10.4375 C2.6075 9.4475 2.2775 8.4575 1.9375 7.4375 C0.2875 7.1075 -1.3625 6.7775 -3.0625 6.4375 C-2.89723918 8.40969691 -2.89723918 8.40969691 -2.0625 10.4375 C-0.11319109 11.46945023 -0.11319109 11.46945023 2.25 12 C8.94832666 14.01589767 8.94832666 14.01589767 10.9375 16.4375 C11.5 19.8125 11.5 19.8125 10.9375 23.4375 C8.5 26.3125 8.5 26.3125 5.9375 28.4375 C5.6075 28.7675 5.2775 29.0975 4.9375 29.4375 C3.1502943 29.58885944 1.35588124 29.65925778 -0.4375 29.6875 C-1.41460937 29.71328125 -2.39171875 29.7390625 -3.3984375 29.765625 C-6.0625 29.4375 -6.0625 29.4375 -7.87109375 28.15234375 C-9.7398395 25.46257527 -9.76071527 22.63641817 -10.0625 19.4375 C-7.7525 19.4375 -5.4425 19.4375 -3.0625 19.4375 C-2.7325 20.4275 -2.4025 21.4175 -2.0625 22.4375 C-0.7425 22.4375 0.5775 22.4375 1.9375 22.4375 C1.9375 21.1175 1.9375 19.7975 1.9375 18.4375 C1.32261719 18.33953125 0.70773437 18.2415625 0.07421875 18.140625 C-6.42757937 16.9377405 -6.42757937 16.9377405 -9.125 14.8125 C-10.47182077 11.40055405 -10.95344824 8.0293543 -10.0625 4.4375 C-7.09761099 0.4398179 -4.87835719 -0.09067578 0 0 Z " fill="#3D506B" transform="translate(316.0625,229.5625)"/>
<path d="M0 0 C1.23556641 0.01740234 1.23556641 0.01740234 2.49609375 0.03515625 C3.32238281 0.04417969 4.14867187 0.05320313 5 0.0625 C5.63808594 0.07410156 6.27617187 0.08570313 6.93359375 0.09765625 C10.14542924 9.12138453 13.23785084 18.43387159 12.93359375 28.09765625 C10.62359375 28.09765625 8.31359375 28.09765625 5.93359375 28.09765625 C5.60359375 26.44765625 5.27359375 24.79765625 4.93359375 23.09765625 C3.28359375 23.09765625 1.63359375 23.09765625 -0.06640625 23.09765625 C-0.39640625 24.74765625 -0.72640625 26.39765625 -1.06640625 28.09765625 C-3.37640625 28.09765625 -5.68640625 28.09765625 -8.06640625 28.09765625 C-7.61296242 22.16708821 -6.80037304 16.80954686 -5.06640625 11.09765625 C-4.5209375 8.44936595 -4.01740285 5.79649717 -3.53125 3.13671875 C-2.91403489 0.42927097 -2.79874855 0.132266 0 0 Z " fill="#384B67" transform="translate(285.06640625,229.90234375)"/>
<path d="M0 0 C2.32421875 1.296875 2.32421875 1.296875 4 3 C4.25 6.6875 4.25 6.6875 4 10 C2.02 10 0.04 10 -2 10 C-2.33 9.01 -2.66 8.02 -3 7 C-5.97 6.505 -5.97 6.505 -9 6 C-8.67 7.32 -8.34 8.64 -8 10 C-6.783125 10.2475 -5.56625 10.495 -4.3125 10.75 C-0.35483231 11.78335195 2.32813053 12.74365908 5 16 C5.69574011 19.14793887 5.70904353 21.85399175 5 25 C2.66137854 27.66118993 0.81591074 27.91671917 -2.640625 28.26953125 C-10.05706213 28.53723687 -10.05706213 28.53723687 -13.32421875 26.67578125 C-15 25 -15 25 -15.25 21.8125 C-15.1675 20.884375 -15.085 19.95625 -15 19 C-13.02 19 -11.04 19 -9 19 C-8.67 19.99 -8.34 20.98 -8 22 C-6.02 22.33 -4.04 22.66 -2 23 C-2.25675913 20.50494008 -2.25675913 20.50494008 -4 18 C-6.5356443 17.00910829 -9.03199282 16.36783882 -11.6875 15.7734375 C-14 15 -14 15 -16 12 C-16.77076412 5.06312292 -16.77076412 5.06312292 -14.1875 1.5 C-9.5663979 -0.67463628 -5.02575516 -0.83138424 0 0 Z " fill="#3D4F6B" transform="translate(138,230)"/>
<path d="M0 0 C6.27 0 12.54 0 19 0 C19 1.98 19 3.96 19 6 C15.04 6 11.08 6 7 6 C7 7.65 7 9.3 7 11 C10.3 11 13.6 11 17 11 C17 12.98 17 14.96 17 17 C14.03 17 11.06 17 8 17 C8 18.65 8 20.3 8 22 C11.63 22 15.26 22 19 22 C19 23.98 19 25.96 19 28 C12.73 28 6.46 28 0 28 C0 18.76 0 9.52 0 0 Z " fill="#455872" transform="translate(151,230)"/>
<path d="M0 0 C0.66 0.33 1.32 0.66 2 1 C-0.31 3.31 -2.62 5.62 -5 8 C25.195 8.495 25.195 8.495 56 9 C56.33 8.34 56.66 7.68 57 7 C57.99 7.66 58.98 8.32 60 9 C60 9.66 60 10.32 60 11 C36.57 11 13.14 11 -11 11 C-9.00312307 7.00624614 -7.83477029 5.82011507 -4.375 3.25 C-3.55773437 2.63640625 -2.74046875 2.0228125 -1.8984375 1.390625 C-0.95871094 0.70226562 -0.95871094 0.70226562 0 0 Z " fill="#D3D9DF" transform="translate(199,140)"/>
<path d="M0 0 C0.99 0.33 1.98 0.66 3 1 C2.34 1.66 1.68 2.32 1 3 C0.66790239 5.6289738 0.66790239 5.6289738 0.68115234 8.73486328 C0.66128265 9.93595734 0.64141296 11.13705139 0.62094116 12.37454224 C0.60938995 13.67664642 0.59783875 14.97875061 0.5859375 16.3203125 C0.5672323 17.66268107 0.54765938 19.00503781 0.5272522 20.34738159 C0.47585609 23.88186678 0.43627074 27.41639012 0.39910889 30.9510498 C0.35911586 34.55730688 0.30800217 38.16340422 0.2578125 41.76953125 C0.1609649 48.84623729 0.07658858 55.92304339 0 63 C-0.66 62.67 -1.32 62.34 -2 62 C-2.04632731 54.35919871 -2.08187121 46.71841197 -2.10362434 39.07750225 C-2.11406444 35.52956369 -2.12822763 31.98172117 -2.15087891 28.43383789 C-2.17675331 24.35562209 -2.1864709 20.27750729 -2.1953125 16.19921875 C-2.20563507 14.92414963 -2.21595764 13.64908051 -2.22659302 12.33537292 C-2.22674408 11.15437515 -2.22689514 9.97337738 -2.22705078 8.7565918 C-2.231492 7.71512497 -2.23593323 6.67365814 -2.24050903 5.60063171 C-2 3 -2 3 0 0 Z " fill="#596C84" transform="translate(174,93)"/>
<path d="M0 0 C1.65 0 3.3 0 5 0 C7 2 7 2 7.265625 4.71484375 C7.26046875 5.77832031 7.2553125 6.84179688 7.25 7.9375 C7.25773438 9.52884766 7.25773438 9.52884766 7.265625 11.15234375 C7 14 7 14 5 17 C3.35 17 1.7 17 0 17 C0 11.39 0 5.78 0 0 Z " fill="#CEDFEA" transform="translate(216,236)"/>
<path d="M0 0 C1.98 0 3.96 0 6 0 C6 1.32 6 2.64 6 4 C6.66 4 7.32 4 8 4 C8.33 2.68 8.66 1.36 9 0 C10.98 0 12.96 0 15 0 C15.04254356 1.99954746 15.04080783 4.00041636 15 6 C14 7 14 7 11.4375 7.0625 C10.2309375 7.0315625 10.2309375 7.0315625 9 7 C9 6.34 9 5.68 9 5 C8.34 5 7.68 5 7 5 C6.67 5.99 6.34 6.98 6 8 C4.35 8 2.7 8 1 8 C0.40267181 5.23735711 0 2.83967231 0 0 Z " fill="#CBDCE7" transform="translate(133,276)"/>
<path d="M0 0 C1.2375 0.1546875 1.2375 0.1546875 2.5 0.3125 C4.5 3.3125 4.5 3.3125 4.1875 5.9375 C3.5 8.3125 3.5 8.3125 2.5 9.3125 C0.0625 9.5 0.0625 9.5 -2.5 9.3125 C-4.5 7.3125 -4.5 7.3125 -4.75 4.8125 C-4.40047575 1.3172575 -3.47557682 0.4344471 0 0 Z " fill="#E3E6EA" transform="translate(207.5,173.6875)"/>
<path d="M0 0 C1.2375 0.1546875 1.2375 0.1546875 2.5 0.3125 C4.5 3.3125 4.5 3.3125 4.1875 5.9375 C3.5 8.3125 3.5 8.3125 2.5 9.3125 C0.0625 9.5 0.0625 9.5 -2.5 9.3125 C-4.5 7.3125 -4.5 7.3125 -4.75 4.8125 C-4.40047575 1.3172575 -3.47557682 0.4344471 0 0 Z " fill="#E1E5E9" transform="translate(186.5,173.6875)"/>
<path d="M0 0 C1.2375 0.1546875 1.2375 0.1546875 2.5 0.3125 C4.5 3.3125 4.5 3.3125 4.125 6 C3.91875 6.763125 3.7125 7.52625 3.5 8.3125 C0.625 8.9375 0.625 8.9375 -2.5 9.3125 C-4.5 7.3125 -4.5 7.3125 -4.75 4.8125 C-4.40047575 1.3172575 -3.47557682 0.4344471 0 0 Z " fill="#E2E6EA" transform="translate(261.5,173.6875)"/>
<path d="M0 0 C1.2375 0.1546875 1.2375 0.1546875 2.5 0.3125 C4.5 3.3125 4.5 3.3125 4.125 6 C3.91875 6.763125 3.7125 7.52625 3.5 8.3125 C0.625 8.9375 0.625 8.9375 -2.5 9.3125 C-4.5 7.3125 -4.5 7.3125 -4.75 4.8125 C-4.40047575 1.3172575 -3.47557682 0.4344471 0 0 Z " fill="#E4E7EB" transform="translate(240.5,173.6875)"/>
<path d="M0 0 C1.46015291 0.28241641 2.91809793 0.57626614 4.375 0.875 C5.18710938 1.03742188 5.99921875 1.19984375 6.8359375 1.3671875 C9 2 9 2 11 4 C11 5.32 11 6.64 11 8 C9.02 8 7.04 8 5 8 C4.67 6.68 4.34 5.36 4 4 C2.02 4 0.04 4 -2 4 C-1.34 6.64 -0.68 9.28 0 12 C-0.99 11.67 -1.98 11.34 -3 11 C-3 8.36 -3 5.72 -3 3 C-1.68 2.67 -0.36 2.34 1 2 C0.67 1.34 0.34 0.68 0 0 Z " fill="#94A6B8" transform="translate(125,245)"/>
<path d="M0 0 C1.98 0 3.96 0 6 0 C6.33 1.32 6.66 2.64 7 4 C8.98 4 10.96 4 13 4 C13.33 2.68 13.66 1.36 14 0 C14.25 5.625 14.25 5.625 12 9 C11.319375 8.54625 10.63875 8.0925 9.9375 7.625 C6.69564814 5.83163514 3.5796559 4.91246131 0 4 C0 2.68 0 1.36 0 0 Z " fill="#BFD0DD" transform="translate(129,236)"/>
<path d="M0 0 C2.64 0 5.28 0 8 0 C8 2.31 8 4.62 8 7 C5.36 7 2.72 7 0 7 C0 4.69 0 2.38 0 0 Z " fill="#8FA1B3" transform="translate(112,276)"/>
<path d="M0 0 C2.64 0.33 5.28 0.66 8 1 C8.33 2.65 8.66 4.3 9 6 C7.35 6.33 5.7 6.66 4 7 C3.67 5.68 3.34 4.36 3 3 C0.69 3 -1.62 3 -4 3 C-3.67 4.98 -3.34 6.96 -3 9 C-3.66 8.67 -4.32 8.34 -5 8 C-5 6.02 -5 4.04 -5 2 C-3.35 1.67 -1.7 1.34 0 1 C0 0.67 0 0.34 0 0 Z " fill="#9FB1C0" transform="translate(310,246)"/>
<path d="M0 0 C2.31 0 4.62 0 7 0 C7 2.31 7 4.62 7 7 C4.69 7 2.38 7 0 7 C0 4.69 0 2.38 0 0 Z " fill="#95A6B8" transform="translate(326,276)"/>
<path d="M0 0 C1.65 0 3.3 0 5 0 C5.33 1.32 5.66 2.64 6 4 C8.31 4 10.62 4 13 4 C12.01 4.495 12.01 4.495 11 5 C11.33 6.32 11.66 7.64 12 9 C11.13375 8.54625 10.2675 8.0925 9.375 7.625 C6.28523093 6.13733341 3.27069152 5.0123569 0 4 C0 2.68 0 1.36 0 0 Z " fill="#CCDEE8" transform="translate(313,236)"/>
<path d="M0 0 C1.98 0 3.96 0 6 0 C6 2.31 6 4.62 6 7 C4.02 7 2.04 7 0 7 C0 4.69 0 2.38 0 0 Z " fill="#8B9DAF" transform="translate(95,276)"/>
<path d="M0 0 C1.98 0 3.96 0 6 0 C6.04254356 1.99954746 6.04080783 4.00041636 6 6 C5 7 5 7 2.4375 7.0625 C1.2309375 7.0315625 1.2309375 7.0315625 0 7 C0 4.69 0 2.38 0 0 Z " fill="#A4B6C5" transform="translate(86,276)"/>
<path d="M0 0 C1.2065625 0.0309375 1.2065625 0.0309375 2.4375 0.0625 C2.4375 2.3725 2.4375 4.6825 2.4375 7.0625 C0.77138095 7.105221 -0.89632885 7.10313832 -2.5625 7.0625 C-3.5625 6.0625 -3.5625 6.0625 -3.6875 3.5625 C-3.51717518 0.15600356 -3.41884482 0.08338646 0 0 Z " fill="#899CAE" transform="translate(165.5625,275.9375)"/>
<path d="M0 0 C1.66611905 -0.042721 3.33382885 -0.04063832 5 0 C6 1 6 1 6.125 3.5 C6 6 6 6 5 7 C3.33382885 7.04063832 1.66611905 7.042721 0 7 C0 4.69 0 2.38 0 0 Z " fill="#8C9EB0" transform="translate(279,276)"/>
<path d="M0 0 C1.66611905 -0.042721 3.33382885 -0.04063832 5 0 C6 1 6 1 6.125 3.5 C6 6 6 6 5 7 C3.33382885 7.04063832 1.66611905 7.042721 0 7 C0 4.69 0 2.38 0 0 Z " fill="#8B9DAF" transform="translate(203,276)"/>
<path d="M0 0 C1.2065625 0.0309375 1.2065625 0.0309375 2.4375 0.0625 C2.4375 2.3725 2.4375 4.6825 2.4375 7.0625 C0.77138095 7.105221 -0.89632885 7.10313832 -2.5625 7.0625 C-3.5625 6.0625 -3.5625 6.0625 -3.6875 3.5625 C-3.51717518 0.15600356 -3.41884482 0.08338646 0 0 Z " fill="#94A5B7" transform="translate(78.5625,275.9375)"/>
<path d="M0 0 C1.98 0 3.96 0 6 0 C6 2.31 6 4.62 6 7 C4.02 7 2.04 7 0 7 C0 4.69 0 2.38 0 0 Z " fill="#A3B4C4" transform="translate(172,276)"/>
<path d="M0 0 C2.375 -0.1875 2.375 -0.1875 5 0 C7 3 7 3 7 7 C5.35 7 3.7 7 2 7 C1.34 4.69 0.68 2.38 0 0 Z " fill="#8193A6" transform="translate(296,276)"/>
<path d="M0 0 C1.98 0 3.96 0 6 0 C5.67 2.31 5.34 4.62 5 7 C3.35 7 1.7 7 0 7 C0 4.69 0 2.38 0 0 Z " fill="#A4B5C5" transform="translate(344,276)"/>
<path d="M0 0 C1.98 0 3.96 0 6 0 C5.34 1.98 4.68 3.96 4 6 C4.66 6.33 5.32 6.66 6 7 C4.02 7 2.04 7 0 7 C0 4.69 0 2.38 0 0 Z " fill="#9DAEBE" transform="translate(124,276)"/>
<path d="M0 0 C1.65 0 3.3 0 5 0 C5 2.31 5 4.62 5 7 C3.35 7 1.7 7 0 7 C0 4.69 0 2.38 0 0 Z " fill="#8193A7" transform="translate(260,276)"/>
<path d="M0 0 C1.65 0 3.3 0 5 0 C5 2.31 5 4.62 5 7 C3.35 7 1.7 7 0 7 C0 4.69 0 2.38 0 0 Z " fill="#A0B1C1" transform="translate(214,276)"/>
<path d="M0 0 C0.99 0 1.98 0 3 0 C3.33 2.31 3.66 4.62 4 7 C2.02 7 0.04 7 -2 7 C-1.125 1.125 -1.125 1.125 0 0 Z " fill="#9AACBD" transform="translate(355,276)"/>
<path d="M0 0 C1.07765625 0.03609375 2.1553125 0.0721875 3.265625 0.109375 C4.49539063 0.17898437 4.49539063 0.17898437 5.75 0.25 C5.75 0.58 5.75 0.91 5.75 1.25 C2.12 1.25 -1.51 1.25 -5.25 1.25 C-7.08836919 4.92673838 -8.18651813 8.29992447 -9.25 12.25 C-9.58 12.25 -9.91 12.25 -10.25 12.25 C-10.73826291 4.92605634 -10.73826291 4.92605634 -8.625 2 C-5.55608729 -0.26130411 -3.76857668 -0.16385116 0 0 Z " fill="#5E7188" transform="translate(316.25,229.75)"/>
<path d="M0 0 C2.1640625 -0.29296875 2.1640625 -0.29296875 4.625 -0.1875 C5.44226563 -0.16042969 6.25953125 -0.13335937 7.1015625 -0.10546875 C8.04128906 -0.05326172 8.04128906 -0.05326172 9 0 C9.33 1.65 9.66 3.3 10 5 C9.34 4.34 8.68 3.68 8 3 C5.34462628 2.43479997 2.70855287 2.26211802 0 2 C-0.33 3.65 -0.66 5.3 -1 7 C-1.625 5.1875 -1.625 5.1875 -2 3 C-1.34 2.01 -0.68 1.02 0 0 Z " fill="#63758C" transform="translate(283,230)"/>
<path d="M0 0 C0.99 0 1.98 0 3 0 C3.66 2.31 4.32 4.62 5 7 C3.02 7 1.04 7 -1 7 C-0.67 4.69 -0.34 2.38 0 0 Z " fill="#99ABBB" transform="translate(153,276)"/>
<path d="M0 0 C1.98 0 3.96 0 6 0 C6 1.98 6 3.96 6 6 C5.01 6.495 5.01 6.495 4 7 C2 5.1875 2 5.1875 0 3 C0 2.01 0 1.02 0 0 Z " fill="#A1B3C3" transform="translate(142,276)"/>
<path d="M0 0 C1.65 0 3.3 0 5 0 C5.33 1.65 5.66 3.3 6 5 C4.02 5 2.04 5 0 5 C0 3.35 0 1.7 0 0 Z " fill="#C3D4E0" transform="translate(130,248)"/>
<path d="M0 0 C1.98 0 3.96 0 6 0 C5.1875 2.9375 5.1875 2.9375 4 6 C3.01 6.33 2.02 6.66 1 7 C0.67 4.69 0.34 2.38 0 0 Z " fill="#99ABBC" transform="translate(240,276)"/>
<path d="M0 0 C1.98 0 3.96 0 6 0 C6 1.98 6 3.96 6 6 C3.5625 5.25 3.5625 5.25 1 4 C0.1875 1.875 0.1875 1.875 0 0 Z " fill="#A2B4C3" transform="translate(181,276)"/>
<path d="M0 0 C1.98 0 3.96 0 6 0 C6 1.98 6 3.96 6 6 C3.5625 5.25 3.5625 5.25 1 4 C0.1875 1.875 0.1875 1.875 0 0 Z " fill="#A2B3C3" transform="translate(363,276)"/>
<path d="M0 0 C1.98 0 3.96 0 6 0 C6 1.98 6 3.96 6 6 C3.5625 5.25 3.5625 5.25 1 4 C0.1875 1.875 0.1875 1.875 0 0 Z " fill="#A2B3C3" transform="translate(133,276)"/>
<path d="M0 0 C1.65 0 3.3 0 5 0 C4.67 1.65 4.34 3.3 4 5 C2.68 5 1.36 5 0 5 C0 3.35 0 1.7 0 0 Z " fill="#CFE0EB" transform="translate(314,248)"/>
<path d="M0 0 C0.33 0 0.66 0 1 0 C1.25 5.625 1.25 5.625 -1 9 C-3.5 7.625 -3.5 7.625 -6 6 C-6 5.34 -6 4.68 -6 4 C-4.02 4 -2.04 4 0 4 C0 2.68 0 1.36 0 0 Z " fill="#B3C4D2" transform="translate(142,236)"/>
<path d="M0 0 C2.3828125 -0.29296875 2.3828125 -0.29296875 5.125 -0.1875 C6.03507813 -0.16042969 6.94515625 -0.13335937 7.8828125 -0.10546875 C8.58148438 -0.07066406 9.28015625 -0.03585938 10 0 C10 0.33 10 0.66 10 1 C8.9275 1.12375 7.855 1.2475 6.75 1.375 C2.57480443 2.02287328 2.57480443 2.02287328 -1 4 C-1.80528889 6.05000871 -1.80528889 6.05000871 -2 8 C-2.20086443 4.28400809 -2.1519437 3.22791555 0 0 Z " fill="#708398" transform="translate(152,147)"/>
<path d="M0 0 C1.32 0.33 2.64 0.66 4 1 C3.67 2.98 3.34 4.96 3 7 C2.01 7 1.02 7 0 7 C0 4.69 0 2.38 0 0 Z " fill="#8C9EB0" transform="translate(318,276)"/>
<path d="M0 0 C0.99 0 1.98 0 3 0 C3.93423645 3.01031744 4.04449911 3.86650268 3 7 C2.01 7 1.02 7 0 7 C0 4.69 0 2.38 0 0 Z " fill="#8597AA" transform="translate(250,276)"/>
<path d="M0 0 C0.99 0 1.98 0 3 0 C3 2.31 3 4.62 3 7 C2.01 7 1.02 7 0 7 C0 4.69 0 2.38 0 0 Z " fill="#8C9EB0" transform="translate(326,276)"/>
<path d="M0 0 C0.99 0 1.98 0 3 0 C3 2.31 3 4.62 3 7 C2.01 7 1.02 7 0 7 C0 4.69 0 2.38 0 0 Z " fill="#8699AB" transform="translate(232,276)"/>
<path d="M0 0 C0.33 0.99 0.66 1.98 1 3 C3.31 3 5.62 3 8 3 C7.01 3.495 7.01 3.495 6 4 C6.33 5.32 6.66 6.64 7 8 C3.535 6.02 3.535 6.02 0 4 C0 2.68 0 1.36 0 0 Z " fill="#B2C4D1" transform="translate(318,237)"/>
<path d="M0 0 C0.66 0.33 1.32 0.66 2 1 C-0.64 3.64 -3.28 6.28 -6 9 C-6.66 8.67 -7.32 8.34 -8 8 C-5.33333333 5.33333333 -2.66666667 2.66666667 0 0 Z " fill="#D1D6DD" transform="translate(199,140)"/>
<path d="M0 0 C-0.33 2.64 -0.66 5.28 -1 8 C-1.66 6.68 -2.32 5.36 -3 4 C-3.66 4 -4.32 4 -5 4 C-5 3.34 -5 2.68 -5 2 C-2 0 -2 0 0 0 Z " fill="#AAB3BF" transform="translate(281,180)"/>
<path d="M0 0 C0.99 0 1.98 0 3 0 C3 2.31 3 4.62 3 7 C2.34 7 1.68 7 1 7 C0.67 4.69 0.34 2.38 0 0 Z " fill="#7F91A5" transform="translate(117,276)"/>
<path d="M0 0 C1.65 0 3.3 0 5 0 C5 1.32 5 2.64 5 4 C3.68 4.33 2.36 4.66 1 5 C0.67 3.35 0.34 1.7 0 0 Z " fill="#AFC1CF" transform="translate(163,276)"/>
<path d="M0 0 C0.66 0.33 1.32 0.66 2 1 C2 2.98 2 4.96 2 7 C1.01 7 0.02 7 -1 7 C-0.67 4.69 -0.34 2.38 0 0 Z " fill="#96A8B9" transform="translate(287,240)"/>
<path d="M0 0 C0.99 0 1.98 0 3 0 C3 2.31 3 4.62 3 7 C2.01 7 1.02 7 0 7 C0 4.69 0 2.38 0 0 Z " fill="#C5D7E2" transform="translate(253,276)"/>
<path d="M0 0 C1.65 0 3.3 0 5 0 C4.67 0.66 4.34 1.32 4 2 C3.34 2 2.68 2 2 2 C1.67 3.65 1.34 5.3 1 7 C0.67 7 0.34 7 0 7 C0 4.69 0 2.38 0 0 Z " fill="#BCC5CF" transform="translate(222,71)"/>
</svg>
