<?xml version="1.0" standalone="no"?>
<!DOCTYPE svg PUBLIC "-//W3C//DTD SVG 20010904//EN"
 "http://www.w3.org/TR/2001/REC-SVG-20010904/DTD/svg10.dtd">
<svg version="1.0" xmlns="http://www.w3.org/2000/svg"
 width="522.000000pt" height="523.000000pt" viewBox="0 0 522.000000 523.000000"
 preserveAspectRatio="xMidYMid meet">

<g transform="translate(0.000000,523.000000) scale(0.100000,-0.100000)"
fill="#000000" stroke="none">
<path d="M2 4028 c1 -662 3 -1185 5 -1163 9 96 46 299 75 410 126 486 399 940
765 1270 438 397 943 617 1553 678 19 2 -513 5 -1182 5 l-1218 2 2 -1202z"/>
<path d="M2905 5215 c704 -77 1368 -456 1792 -1022 277 -368 446 -778 507
-1228 12 -88 14 40 15 1083 l1 1182 -1217 -1 c-1065 -1 -1203 -3 -1098 -14z"/>
<path d="M2485 4163 c-72 -9 -235 -47 -292 -68 -363 -136 -613 -399 -678 -713
-13 -60 -14 -94 -6 -176 6 -55 13 -202 16 -326 3 -124 8 -246 11 -271 l6 -46
-127 -61 c-70 -34 -149 -78 -176 -98 -41 -30 -49 -41 -49 -67 1 -104 92 -393
179 -567 38 -75 211 -368 274 -464 10 -15 8 -21 -17 -40 -16 -11 -51 -37 -77
-57 -200 -147 -378 -344 -505 -556 -27 -46 -53 -83 -58 -83 -13 0 -159 130
-244 219 -198 204 -356 429 -476 676 -149 304 -227 587 -260 935 -1 19 -4
-513 -4 -1182 l-2 -1218 1310 0 1310 0 -10 25 c-5 14 -7 33 -3 42 10 29 47 61
73 64 20 3 26 11 28 37 2 17 8 32 13 32 5 0 19 11 31 25 20 23 48 34 48 18 0
-17 -34 -93 -41 -93 -5 0 -20 -18 -34 -41 -15 -22 -39 -45 -55 -50 -18 -7 -30
-19 -33 -35 -4 -21 -1 -24 24 -24 18 0 30 6 34 19 5 16 45 61 45 50 0 -2 -4
-19 -9 -37 l-10 -32 1250 0 1249 0 -1 1178 -1 1177 -19 -125 c-81 -536 -321
-1027 -699 -1424 -84 -89 -225 -216 -239 -216 -5 0 -13 10 -17 23 -13 43 -98
183 -156 257 -85 108 -219 242 -329 329 -53 42 -104 81 -114 87 -18 10 -17 15
22 90 36 68 67 145 198 479 13 33 38 101 55 150 17 50 42 121 55 158 14 38 29
97 35 130 6 34 13 70 16 79 3 10 -6 27 -23 42 -34 32 -214 124 -304 156 l-66
24 1 445 1 446 -37 83 c-92 209 -215 345 -418 461 -183 105 -477 162 -695 134z
m396 -793 c4 -19 14 -64 22 -100 8 -36 12 -68 8 -72 -8 -9 -163 -11 -229 -2
-29 3 -58 2 -65 -4 -17 -13 -67 -24 -67 -14 0 21 35 53 68 62 29 8 49 8 92 -4
55 -15 55 -15 78 11 30 33 15 52 -22 28 -22 -15 -31 -16 -52 -6 -70 32 -180
-10 -222 -85 -7 -12 -32 -17 -112 -21 l-103 -6 7 89 c12 147 -1 134 140 134
139 1 276 8 356 20 85 12 94 10 101 -30z m47 -247 c5 -21 16 -69 26 -107 9
-38 13 -73 9 -76 -5 -4 -156 -17 -338 -29 -181 -12 -334 -23 -340 -24 -6 -1
-10 38 -10 113 l0 115 92 3 92 3 -19 -43 c-37 -81 -35 -83 113 -93 137 -10
188 19 203 113 l6 41 57 6 c31 3 63 8 71 9 8 2 18 4 22 5 4 0 11 -16 16 -36z
m-225 -22 c-4 -95 -132 -109 -176 -19 -17 36 -17 38 10 42 11 2 25 -8 36 -26
21 -35 61 -52 88 -37 30 15 20 44 -15 44 -38 0 -46 23 -9 27 60 7 68 3 66 -31z
m-208 -61 c-9 -15 -35 -12 -35 3 0 7 5 18 12 25 9 9 14 9 21 -3 4 -8 5 -20 2
-25z m-355 -97 c0 -45 -8 -57 -30 -43 -12 7 -11 12 4 29 13 15 16 28 11 53 -5
24 -4 29 4 18 6 -8 11 -34 11 -57z m1074 -90 c13 -44 25 -267 27 -474 l2 -226
-28 -51 c-58 -107 -165 -212 -271 -265 -95 -48 -166 -61 -329 -62 -141 0 -156
2 -260 33 -65 20 -122 43 -138 58 -42 36 -63 94 -96 260 -46 233 -61 438 -42
609 l6 60 40 0 c44 0 37 13 90 -155 29 -87 93 -226 101 -217 3 2 0 24 -5 48
-14 65 -42 309 -37 318 3 4 103 11 223 15 120 3 277 13 348 20 72 8 133 11
137 7 3 -3 14 -67 23 -141 16 -136 42 -290 49 -298 14 -14 30 108 35 273 l6
190 30 6 c57 12 83 10 89 -8z m-332 -1339 c98 -13 208 -35 258 -49 11 -3 15
-19 15 -52 0 -45 -2 -49 -60 -96 -58 -47 -183 -116 -215 -118 -8 0 -10 -3 -4
-5 24 -10 130 41 211 102 46 35 86 64 88 64 1 0 -3 -17 -10 -37 -8 -21 -38
-109 -68 -196 -31 -87 -57 -160 -59 -162 -29 -29 -560 -42 -695 -17 -62 12
-73 17 -82 40 -31 81 -91 246 -91 253 0 5 7 9 15 9 18 0 18 -4 1 43 -7 22 -23
44 -37 50 -22 12 -58 82 -47 92 3 3 38 15 79 26 230 64 486 83 701 53z m318
-83 c0 -6 -4 -13 -10 -16 -5 -3 -10 1 -10 9 0 9 5 16 10 16 6 0 10 -4 10 -9z
m-1040 -131 c0 -5 -2 -10 -4 -10 -3 0 -8 5 -11 10 -3 6 -1 10 4 10 6 0 11 -4
11 -10z m1619 -167 c0 -5 -21 -21 -47 -38 -85 -55 -105 -131 -67 -261 27 -95
131 -184 213 -184 26 0 36 7 52 33 11 17 20 49 20 69 0 36 -17 88 -29 88 -4 0
-24 16 -46 35 -22 19 -46 35 -53 35 -24 0 -6 25 20 28 28 3 74 -34 107 -89 23
-37 29 -127 11 -173 -18 -48 -101 -70 -167 -45 -15 6 -59 43 -98 83 -62 65
-76 75 -123 85 -29 6 -72 11 -95 12 l-42 1 35 8 c19 4 61 11 92 15 l58 6 -1
72 c-2 94 14 148 55 192 26 28 41 35 70 35 20 0 36 -3 35 -7z m-1376 -291 c4
-1 12 -2 18 -2 17 0 -1 -21 -27 -30 -16 -7 -24 -17 -24 -34 0 -46 -19 -37 -35
16 -8 28 -15 55 -15 58 0 6 42 2 83 -8z m596 1 c0 -5 -15 -48 -32 -98 -24 -68
-37 -91 -52 -94 -26 -4 -36 -21 -28 -49 8 -31 -22 -64 -53 -56 -26 7 -48 -23
-38 -51 9 -23 -25 -57 -52 -51 -30 8 -52 -19 -36 -44 13 -21 6 -30 -24 -30
-29 0 -36 -12 -28 -44 6 -25 7 -25 35 -10 16 8 29 22 29 32 1 9 42 60 92 112
51 52 89 88 86 80 -3 -8 -13 -40 -23 -70 -10 -30 -28 -64 -41 -75 -12 -11 -24
-31 -26 -45 -2 -17 -10 -25 -23 -26 -11 -1 -26 -2 -32 -3 -7 -1 -13 -13 -13
-28 -1 -16 -13 -43 -29 -61 -25 -29 -41 -38 -73 -41 -5 -1 -8 -12 -8 -25 0
-35 -22 -49 -48 -30 -28 20 -28 47 0 59 13 6 24 17 26 26 4 20 -28 30 -52 17
-13 -7 -19 -2 -32 27 -14 34 -13 38 6 66 12 16 35 36 51 44 16 9 29 21 29 29
0 7 15 27 33 44 17 17 43 45 56 62 13 17 26 29 28 26 14 -13 43 17 43 44 0 21
9 36 35 56 19 14 35 31 35 37 0 18 50 77 66 77 13 0 34 37 34 61 0 15 -56 10
-70 -6 -7 -8 -10 -24 -7 -34 6 -24 -33 -64 -55 -56 -24 10 -50 -23 -43 -55 6
-28 -5 -43 -48 -65 -12 -5 -24 -21 -27 -34 -3 -13 -13 -28 -23 -33 -9 -4 -25
-12 -34 -17 -10 -4 -20 -21 -23 -37 -4 -22 -11 -30 -32 -32 -25 -3 -48 -35
-34 -49 3 -3 -4 -19 -16 -35 -22 -32 -30 -29 -46 18 -8 26 -7 34 9 48 10 8 19
23 19 32 0 20 107 141 141 159 16 9 29 26 32 44 4 17 20 40 42 56 19 15 35 34
35 41 0 8 15 29 33 48 30 33 37 35 107 39 41 1 81 4 88 5 6 1 12 -1 11 -5z
m-465 -19 c3 -9 6 -24 6 -34 0 -28 64 -12 68 18 3 21 8 22 83 22 43 0 79 -4
79 -8 0 -14 -23 -32 -42 -32 -11 0 -23 -12 -29 -27 -20 -49 -25 -57 -55 -73
-16 -9 -36 -32 -45 -51 -9 -19 -30 -41 -45 -50 -16 -8 -31 -24 -33 -35 -5 -27
-28 -51 -57 -57 -21 -4 -26 1 -36 35 -10 36 -10 40 11 54 16 11 21 24 19 44
-3 34 17 60 47 60 12 0 28 7 36 16 20 24 -1 49 -42 49 -32 0 -34 -2 -37 -38
-2 -21 -9 -40 -15 -42 -53 -16 -66 -15 -72 6 -6 17 0 30 24 53 17 17 45 48 62
69 33 39 63 48 73 21z m869 -27 c-17 -7 -34 -15 -38 -19 -3 -3 18 -53 49 -110
59 -113 97 -207 122 -302 17 -65 61 -156 76 -156 5 0 6 -5 3 -10 -13 -21 -42
-9 -62 28 -12 20 -30 71 -42 113 -40 144 -101 264 -194 382 -18 23 -26 42 -21
47 15 15 86 39 114 39 23 -1 22 -2 -7 -12z m607 -342 c29 -15 36 -26 25 -37
-3 -3 -24 1 -46 8 -60 21 -104 -2 -136 -73 -21 -46 -46 -73 -68 -73 -3 0 -2
12 1 28 29 121 137 192 224 147z"/>
<path d="M2661 1189 l-37 -41 -105 11 c-58 5 -122 17 -143 26 -21 9 -40 14
-43 12 -16 -17 169 -57 263 -57 28 0 59 -6 70 -15 31 -24 70 -18 109 16 19 17
35 34 35 38 0 12 -67 51 -89 51 -13 0 -37 -17 -60 -41z m78 -7 c12 -22 -3 -42
-31 -42 -21 0 -26 45 -5 53 21 9 26 8 36 -11z"/>
<path d="M2270 1216 c0 -2 7 -7 16 -10 8 -3 12 -2 9 4 -6 10 -25 14 -25 6z"/>
<path d="M2610 275 c0 -29 3 -30 24 -9 22 21 20 34 -4 34 -15 0 -20 -7 -20
-25z"/>
</g>
</svg>
