<?xml version="1.0" standalone="no"?>
<!DOCTYPE svg PUBLIC "-//W3C//DTD SVG 20010904//EN"
 "http://www.w3.org/TR/2001/REC-SVG-20010904/DTD/svg10.dtd">
<svg version="1.0" xmlns="http://www.w3.org/2000/svg"
 width="360.000000pt" height="360.000000pt" viewBox="0 0 360.000000 360.000000"
 preserveAspectRatio="xMidYMid meet">

<g transform="translate(0.000000,360.000000) scale(0.100000,-0.100000)"
fill="#000000" stroke="none">
<path d="M1636 2685 c-100 -21 -161 -42 -251 -88 -217 -112 -376 -307 -451
-552 -25 -82 -28 -104 -27 -245 0 -139 3 -164 26 -243 94 -308 316 -530 622
-623 80 -24 106 -27 240 -27 178 0 258 17 402 88 230 113 392 307 470 562 24
79 27 103 27 243 0 140 -3 164 -28 245 -95 311 -336 547 -641 626 -104 27
-293 34 -389 14z m320 -86 c204 -37 406 -175 524 -356 91 -139 130 -273 130
-447 0 -167 -41 -305 -131 -443 -36 -54 -44 -62 -50 -47 -4 11 -17 47 -29 80
-49 139 -170 273 -310 343 l-80 40 -46 -19 c-101 -44 -227 -44 -328 0 l-46 19
-82 -41 c-145 -72 -266 -212 -319 -370 -11 -34 -22 -64 -24 -66 -6 -7 -89 133
-116 198 -42 98 -59 187 -59 306 0 122 13 195 51 296 97 250 325 446 584 503
74 17 252 19 331 4z"/>
<path d="M1710 2431 c-55 -18 -108 -52 -147 -93 -142 -155 -94 -413 95 -505
49 -24 69 -28 142 -28 73 0 93 4 142 28 234 114 236 455 3 575 -39 20 -68 26
-130 28 -44 2 -91 0 -105 -5z"/>
</g>
</svg>
